<mxfile host="app.diagrams.net" modified="2024-03-27T22:59:14.667Z" agent="Mozilla/5.0 (Windows NT 10.0; Win64; x64) AppleWebKit/537.36 (KHTML, like Gecko) Chrome/123.0.0.0 Safari/537.36" etag="U2xI2Mj5BK9pY8CqaS9u" version="24.1.0" type="google">
  <diagram name="Page-1" id="7GkaoeXhQLj__1PK4nl5">
    <mxGraphModel grid="1" page="1" gridSize="10" guides="1" tooltips="1" connect="1" arrows="1" fold="1" pageScale="1" pageWidth="827" pageHeight="1169" math="0" shadow="0">
      <root>
        <mxCell id="0" />
        <mxCell id="1" parent="0" />
        <mxCell id="YXSxs9BvEZ-CpijuihPz-1" value="Chef" style="shape=umlLifeline;perimeter=lifelinePerimeter;whiteSpace=wrap;container=1;dropTarget=0;collapsible=0;recursiveResize=0;outlineConnect=0;portConstraint=eastwest;newEdgeStyle={&quot;edgeStyle&quot;:&quot;elbowEdgeStyle&quot;,&quot;elbow&quot;:&quot;vertical&quot;,&quot;curved&quot;:0,&quot;rounded&quot;:0};size=65;" vertex="1" parent="1">
          <mxGeometry x="20" y="20" width="150" height="264" as="geometry" />
        </mxCell>
        <mxCell id="YXSxs9BvEZ-CpijuihPz-2" value="QG" style="shape=umlLifeline;perimeter=lifelinePerimeter;whiteSpace=wrap;container=1;dropTarget=0;collapsible=0;recursiveResize=0;outlineConnect=0;portConstraint=eastwest;newEdgeStyle={&quot;edgeStyle&quot;:&quot;elbowEdgeStyle&quot;,&quot;elbow&quot;:&quot;vertical&quot;,&quot;curved&quot;:0,&quot;rounded&quot;:0};size=65;" vertex="1" parent="1">
          <mxGeometry x="263" y="20" width="150" height="264" as="geometry" />
        </mxCell>
        <mxCell id="YXSxs9BvEZ-CpijuihPz-3" value="Serveur" style="shape=umlLifeline;perimeter=lifelinePerimeter;whiteSpace=wrap;container=1;dropTarget=0;collapsible=0;recursiveResize=0;outlineConnect=0;portConstraint=eastwest;newEdgeStyle={&quot;edgeStyle&quot;:&quot;elbowEdgeStyle&quot;,&quot;elbow&quot;:&quot;vertical&quot;,&quot;curved&quot;:0,&quot;rounded&quot;:0};size=65;" vertex="1" parent="1">
          <mxGeometry x="542" y="20" width="150" height="264" as="geometry" />
        </mxCell>
        <mxCell id="YXSxs9BvEZ-CpijuihPz-4" value="Proposer un plat du jour" style="verticalAlign=bottom;endArrow=block;edgeStyle=elbowEdgeStyle;elbow=vertical;curved=0;rounded=0;" edge="1" parent="1" source="YXSxs9BvEZ-CpijuihPz-1" target="YXSxs9BvEZ-CpijuihPz-2">
          <mxGeometry relative="1" as="geometry">
            <Array as="points">
              <mxPoint x="227" y="127" />
            </Array>
          </mxGeometry>
        </mxCell>
        <mxCell id="YXSxs9BvEZ-CpijuihPz-5" value="Mettre Ã  jour les plats du jour" style="verticalAlign=bottom;endArrow=block;edgeStyle=elbowEdgeStyle;elbow=vertical;curved=0;rounded=0;" edge="1" parent="1" source="YXSxs9BvEZ-CpijuihPz-2" target="YXSxs9BvEZ-CpijuihPz-3">
          <mxGeometry relative="1" as="geometry">
            <Array as="points">
              <mxPoint x="488" y="179" />
            </Array>
          </mxGeometry>
        </mxCell>
      </root>
    </mxGraphModel>
  </diagram>
</mxfile>
